<?xml version="1.0" encoding="UTF-8" standalone="no"?>
<!-- Generator: Adobe Illustrator 19.0.0, SVG Export Plug-In . SVG Version: 6.00 Build 0)  -->
<svg id="Capa_1" style="enable-background:new 0 0 60 60" xmlns="http://www.w3.org/2000/svg" xml:space="preserve" viewBox="0 0 60 60" height="512px" width="512px" version="1.1" y="0px" x="0px" xmlns:xlink="http://www.w3.org/1999/xlink">
<g fill="#fff">
	<path d="m26.375 39.781c0.184 0.147 0.405 0.219 0.625 0.219 0.276 0 0.551-0.114 0.748-0.336l16-18c0.367-0.412 0.33-1.045-0.083-1.411-0.414-0.368-1.045-0.33-1.412 0.083l-15.369 17.29-9.259-7.407c-0.43-0.345-1.061-0.273-1.405 0.156-0.345 0.432-0.275 1.061 0.156 1.406l9.999 8z"/>
	<path d="m0 0v60h60v-60h-60zm58 58h-56v-56h56v56z"/>
</g>
</svg>
