<?xml version="1.0" encoding="UTF-8" standalone="no"?>
<!DOCTYPE svg  PUBLIC '-//W3C//DTD SVG 1.1//EN'  'http://www.w3.org/Graphics/SVG/1.1/DTD/svg11.dtd'>
<svg width="282pt" xmlns="http://www.w3.org/2000/svg" viewBox="0 0 282 283" version="1.1" height="283pt">
 <g id="#fafa50ff">
  <path d="m0 0h282v283h-282v-93.53c93.63-0.04 187.26 0.12 280.88 0.12-0.07-32.44 0.05-64.88-0.04-97.32-0.02-30.66 0.03-61.32-0.02-91.98-93.6 0.42-187.21 0.38-280.82 0.03v-0.32z" fill="#fafa50"/>
 </g>
 <g id="#2d2c2bff">
  <path d="m0 0.32c93.61 0.35 187.22 0.39 280.82-0.03 0.05 30.66 0 61.32 0.02 91.98-93.61 0.12-187.23 0.17-280.84-0.01v-91.94z" fill="#2d2c2b"/>
 </g>
 <g id="#ff011dff">
  <path d="m0 92.26c93.61 0.18 187.23 0.13 280.84 0.01 0.09 32.44-0.03 64.88 0.04 97.32-93.62 0-187.25-0.16-280.88-0.12v-97.21z" fill="#ff011d"/>
 </g>
</svg>
