<?xml version="1.0" encoding="UTF-8" standalone="no"?>
<!DOCTYPE svg  PUBLIC '-//W3C//DTD SVG 1.1//EN'  'http://www.w3.org/Graphics/SVG/1.1/DTD/svg11.dtd'>
<svg width="190pt" xmlns="http://www.w3.org/2000/svg" viewBox="0 0 190 250" version="1.1" height="250pt">
 <g id="#4e4e4ecc" fill="#4e4e4e">
  <path opacity=".8" d="m31 0h4v59.99c-1.33 0.01-2.67 0.01-4 0v-59.99z"/>
  <path opacity=".8" d="m145 0h4v59.99c-1.34 0.01-2.67 0.01-4 0v-59.99z"/>
 </g>
 <g id="#939393d9">
  <path opacity=".85" d="m0 60c10.33-0.01 20.67 0.02 31-0.01 1.33 0.01 2.67 0.01 4 0 36.67 0.02 73.33 0.01 110 0 1.33 0.01 2.66 0.01 4 0 13.67 0.04 27.33-0.01 41 0.01v190h-190v-190m5.02 5.02c-0.04 59.99-0.04 119.97 0 179.96 59.99 0.04 119.97 0.04 179.96 0 0.04-59.99 0.04-119.97 0-179.96-59.99-0.04-119.97-0.04-179.96 0z" fill="#939393"/>
 </g>
 <g id="#fdfdfdfd">
  <path d="m5.02 65.02c59.99-0.04 119.97-0.04 179.96 0 0.04 59.99 0.04 119.97 0 179.96-59.99 0.04-119.97 0.04-179.96 0-0.04-59.99-0.04-119.97 0-179.96z" fill="#fdfdfd"/>
 </g>
</svg>
