<?xml version="1.0" standalone="no"?>
<!DOCTYPE svg PUBLIC "-//W3C//DTD SVG 1.1//EN" "http://www.w3.org/Graphics/SVG/1.1/DTD/svg11.dtd">
<svg width="100%" height="100%" viewBox="0 0 1056 1389" version="1.1" xmlns="http://www.w3.org/2000/svg" xmlns:xlink="http://www.w3.org/1999/xlink" xml:space="preserve" style="fill-rule:evenodd;clip-rule:evenodd;stroke-linejoin:round;stroke-miterlimit:1.41421;">
    <g transform="matrix(5.55556,0,0,5.55556,-0,-0)">
        <g id="#4e4e4ecc">
            <rect x="31" y="0" width="4" height="60" style="fill:rgb(78,78,78);fill-opacity:0.8;fill-rule:nonzero;"/>
            <g transform="matrix(1,0,0,1,11.2831,0)">
                <rect x="145" y="0" width="4" height="60" style="fill:rgb(78,78,78);fill-opacity:0.8;fill-rule:nonzero;"/>
            </g>
        </g>
        <path id="#939393d9" d="M0,60C10.33,59.99 20.67,60.02 31,59.99C32.33,60 33.67,60 35,59.99C71.67,60.01 108.33,60 145,59.99C146.33,60 147.66,60 149,59.99C162.67,60.03 176.33,59.98 190,60L190,250L0,250L0,60M5.02,65.02C4.98,125.01 4.98,184.99 5.02,244.98C65.01,245.02 124.99,245.02 184.98,244.98C185.02,184.99 185.02,125.01 184.98,65.02C124.99,64.98 65.01,64.98 5.02,65.02L5.02,65.02Z" style="fill:rgb(147,147,147);fill-opacity:0.85;fill-rule:nonzero;"/>
        <path id="#fdfdfdfd" d="M5.02,65.02C65.01,64.98 124.99,64.98 184.98,65.02C185.02,125.01 185.02,184.99 184.98,244.98C124.99,245.02 65.01,245.02 5.02,244.98C4.98,184.99 4.98,125.01 5.02,65.02L5.02,65.02Z" style="fill:rgb(253,253,253);fill-rule:nonzero;"/>
    </g>
</svg>
