<?xml version="1.0" encoding="UTF-8" standalone="no"?>
<!-- Generator: Adobe Illustrator 17.1.0, SVG Export Plug-In . SVG Version: 6.00 Build 0)  -->
<!DOCTYPE svg  PUBLIC '-//W3C//DTD SVG 1.1//EN'  'http://www.w3.org/Graphics/SVG/1.1/DTD/svg11.dtd'>
<svg id="Capa_1" style="enable-background:new 0 0 167.707 167.707" xmlns="http://www.w3.org/2000/svg" xml:space="preserve" viewBox="0 0 167.707 167.707" height="512px" width="512px" version="1.1" y="0px" x="0px" xmlns:xlink="http://www.w3.org/1999/xlink">
<path d="m154.8 140.86h-141.89c-7.119 0-12.91-5.79-12.91-12.91v-88.197c0-7.118 5.791-12.909 12.909-12.909h141.89c7.117 0 12.908 5.791 12.908 12.909v88.201c0 7.12-5.79 12.91-12.91 12.91zm-147.79-7.64c1.449 1.621 3.556 2.644 5.896 2.644h141.89c2.324 0 4.416-1.008 5.864-2.608l-63.272-46.428-12.068 8.809c-0.876 0.64-2.065 0.641-2.943 0.003l-12.133-8.814-63.231 46.4zm94.607-49.491l61.062 44.808c0.015-0.192 0.021-0.387 0.021-0.583v-88.207c0-0.199-0.008-0.397-0.022-0.593l-61.06 44.569zm-96.613-44.302c-0.005 0.108-0.007 0.217-0.007 0.326v88.201c0 0.178 0.006 0.354 0.018 0.527l60.979-44.747-60.99-44.306zm1.889-4.808l76.945 55.899 76.817-56.07c-1.448-1.599-3.539-2.604-5.86-2.604h-141.89c-2.405 0-4.561 1.078-6.014 2.775z" fill="#fff"/>
</svg>
