<?xml version="1.0" encoding="UTF-8" standalone="no"?>
<!-- Generator: Adobe Illustrator 19.0.0, SVG Export Plug-In . SVG Version: 6.00 Build 0)  -->
<svg id="Capa_1" style="enable-background:new 0 0 60 60" xmlns="http://www.w3.org/2000/svg" xml:space="preserve" viewBox="0 0 60 60" height="512px" width="512px" version="1.1" y="0px" x="0px" xmlns:xlink="http://www.w3.org/1999/xlink">
<g fill="#fff">
	<path d="m42.595 0h-25.19c-2.428 0-4.405 1.977-4.405 4.405v51.189c0 2.429 1.977 4.406 4.405 4.406h25.189c2.429 0 4.406-1.977 4.406-4.405v-51.19c0-2.428-1.977-4.405-4.405-4.405zm-27.595 8h30v38h-30v-38zm2.405-6h25.189c1.327 0 2.406 1.079 2.406 2.405v1.595h-30v-1.595c0-1.326 1.079-2.405 2.405-2.405zm25.19 56h-25.19c-1.326 0-2.405-1.079-2.405-2.405v-7.595h30v7.595c0 1.326-1.079 2.405-2.405 2.405z"/>
	<path d="m30 49c-2.206 0-4 1.794-4 4s1.794 4 4 4 4-1.794 4-4-1.794-4-4-4zm0 6c-1.103 0-2-0.897-2-2s0.897-2 2-2 2 0.897 2 2-0.897 2-2 2z"/>
	<path d="m26 5h4c0.553 0 1-0.447 1-1s-0.447-1-1-1h-4c-0.553 0-1 0.447-1 1s0.447 1 1 1z"/>
	<path d="m33 5h1c0.553 0 1-0.447 1-1s-0.447-1-1-1h-1c-0.553 0-1 0.447-1 1s0.447 1 1 1z"/>
	<path d="m56.612 4.569c-0.391-0.391-1.023-0.391-1.414 0s-0.391 1.023 0 1.414c3.736 3.736 3.736 9.815 0 13.552-0.391 0.391-0.391 1.023 0 1.414 0.195 0.195 0.451 0.293 0.707 0.293s0.512-0.098 0.707-0.293c4.516-4.515 4.516-11.864 0-16.38z"/>
	<path d="m52.401 6.845c-0.391-0.391-1.023-0.391-1.414 0s-0.391 1.023 0 1.414c1.237 1.237 1.918 2.885 1.918 4.639s-0.681 3.401-1.918 4.638c-0.391 0.391-0.391 1.023 0 1.414 0.195 0.195 0.451 0.293 0.707 0.293s0.512-0.098 0.707-0.293c1.615-1.614 2.504-3.764 2.504-6.052s-0.888-4.439-2.504-6.053z"/>
	<path d="m4.802 5.983c0.391-0.391 0.391-1.023 0-1.414s-1.023-0.391-1.414 0c-4.516 4.516-4.516 11.864 0 16.38 0.195 0.195 0.451 0.293 0.707 0.293s0.512-0.098 0.707-0.293c0.391-0.391 0.391-1.023 0-1.414-3.737-3.736-3.737-9.815 0-13.552z"/>
	<path d="m9.013 6.569c-0.391-0.391-1.023-0.391-1.414 0-1.615 1.614-2.504 3.764-2.504 6.052s0.889 4.438 2.504 6.053c0.195 0.195 0.451 0.293 0.707 0.293s0.512-0.098 0.707-0.293c0.391-0.391 0.391-1.023 0-1.414-1.237-1.237-1.918-2.885-1.918-4.639s0.68-3.401 1.918-4.638c0.39-0.39 0.39-1.023 0-1.414z"/>
</g>
</svg>
