<?xml version="1.0" encoding="UTF-8" standalone="no"?>
<!DOCTYPE svg  PUBLIC '-//W3C//DTD SVG 1.1//EN'  'http://www.w3.org/Graphics/SVG/1.1/DTD/svg11.dtd'>
<svg width="282pt" xmlns="http://www.w3.org/2000/svg" viewBox="0 0 282 287" version="1.1" height="287pt">
 <g id="#ffffffff">
  <path d="m0 0h282v97.5c-93.77 0.02-187.55 0.01-281.32 0.02 0.04 32.36 0.03 64.71 0.04 97.07 0 25.13 0 50.27 0.03 75.4 0.92 5.65-1.13 11.47 0.79 17.01h-1.54v-287z" fill="#fff"/>
 </g>
 <g id="#1339cfff">
  <path d="m0.68 97.52c93.77-0.01 187.55 0 281.32-0.02v97.28c-25.64-0.46-51.31-0.1-76.96-0.24-68.11-0.04-136.21-0.06-204.32 0.05-0.01-32.36 0-64.71-0.04-97.07z" fill="#1339cf"/>
 </g>
 <g id="#ff1333ff">
  <path d="m0.72 194.59c68.11-0.11 136.21-0.09 204.32-0.05 25.65 0.14 51.32-0.22 76.96 0.24v92.22h-280.46c-1.92-5.54 0.13-11.36-0.79-17.01-0.03-25.13-0.03-50.27-0.03-75.4z" fill="#ff1333"/>
 </g>
</svg>
