<?xml version="1.0" encoding="UTF-8" standalone="no"?>
<!DOCTYPE svg  PUBLIC '-//W3C//DTD SVG 1.1//EN'  'http://www.w3.org/Graphics/SVG/1.1/DTD/svg11.dtd'>
<svg width="283pt" xmlns="http://www.w3.org/2000/svg" viewBox="0 0 283 283" version="1.1" height="283pt">
 <g id="#ffffffff" fill="#fff">
  <path d="m0 0h1.76c-1.64 1.49-0.93 4-1.39 5.94 2.33-0.05 4.67-0.12 7-0.17 0.5-1.88 1-3.76 1.46-5.65l1.32 0.2c0.23 1.78 0.48 3.56 0.72 5.34 2.39 0.11 4.78 0.18 7.17 0.24-1.8 1.31-3.61 2.62-5.4 3.95 0.65 2.06 1.28 4.13 1.89 6.21-1.78-1.25-3.54-2.51-5.31-3.77-1.7 1.25-3.4 2.49-5.11 3.72 0.55-1.98 1.24-3.93 1.55-5.97-1.11-1.46-2.59-2.6-3.89-3.89-1.51 2.71-1.09 5.89-1.14 8.86 0.14 6.74-0.1 13.49 0.07 20.22-0.14 1.24 0.58 2.27 1.07 3.33 1.82-0.34 3.66-0.64 5.49-0.93 0.7-1.96 1.39-3.92 2.11-5.87 0.6 1.96 1.19 3.92 1.74 5.89 2.27 0.11 4.54 0.19 6.8 0.25-1.77 1.33-3.53 2.67-5.3 4.01 0.7 2.05 1.38 4.1 2.06 6.16-1.82-1.25-3.63-2.5-5.44-3.75-1.74 1.23-3.48 2.44-5.24 3.64 0.64-2.07 1.31-4.13 1.99-6.19-1.74-1.25-3.56-2.39-5.43-3.43 0.24 10.47 0.06 20.95 0.11 31.42 2.21-0.01 4.42-0.01 6.64-0.01 0.62-1.99 1.25-3.98 1.86-5.98 0.74 1.95 1.36 3.95 2.31 5.81 2.19 0.32 4.41 0.22 6.61 0.28-1.83 1.34-3.65 2.69-5.47 4.06 0.71 2.03 1.41 4.08 2.09 6.12-1.84-1.24-3.67-2.5-5.49-3.76-1.73 1.25-3.47 2.5-5.22 3.73 0.61-1.99 1.35-3.95 1.72-6.01-1.45-1.62-3.3-2.82-5.01-4.16-0.1 9.05 0.03 18.09-0.08 27.13 0.09 1.54-0.19 3.3 0.76 4.64 1.82 0.97 3.96 0.16 5.91 0.15 0.63-2.09 1.27-4.17 1.9-6.26 0.74 2.08 1.46 4.16 2.16 6.25 2.25 0.02 4.5 0.04 6.74 0.07-1.81 1.37-3.62 2.74-5.44 4.1 0.7 2.06 1.39 4.12 2.06 6.19-1.86-1.26-3.69-2.55-5.53-3.83-1.69 1.29-3.39 2.56-5.1 3.82 0.52-2.1 1.11-4.18 1.67-6.27-1.38-1.16-2.75-2.34-4.1-3.54-1.92 4.99-0.64 10.49-0.97 15.7 0.32 5.21-0.75 10.65 0.58 15.71 1.98 0.23 3.99 0.06 5.98 0.05 0.65-2.08 1.3-4.15 1.96-6.22 0.76 2.05 1.48 4.12 2.2 6.2 2.28 0.01 4.57 0.02 6.85 0.04l-5.46 4.08c0.64 2.06 1.28 4.12 1.89 6.19-1.85-1.21-3.68-2.45-5.52-3.69-1.69 1.28-3.39 2.55-5.11 3.78 0.55-2.16 1.16-4.31 1.79-6.46-1.52-0.96-2.94-2.13-4.64-2.74-1.17 5.75-0.21 11.68-0.52 17.51 46.61 0 93.23 0.04 139.84 0.02 47.23-0.04 94.46 0.07 141.69-0.03-0.47-7.58-0.13-15.15-0.12-22.73-47.19 0.02-94.39 0-141.58 0.03 0-7.63 0-15.27 0.01-22.9 47.13 0 94.26 0.02 141.4-0.08-0.14-7.47 0.34-14.94 0.28-22.41-47.22-0.32-94.46 0.05-141.69-0.06 0-7.61 0.01-15.23 0-22.84 47.1 0.07 94.2-0.15 141.3-0.1 0.67-7.58 0.24-15.19 0.31-22.79-47.2 0.07-94.4 0.16-141.61 0.15 0.01-7.6 0-15.21 0.01-22.81 47.12-0.02 94.24-0.09 141.36-0.31 0.11-5.19 0.6-10.41-0.1-15.58h1.22v283h-283v-283m1.08 175.42c0.07 7.46 0.11 14.92 0.03 22.38 74.63-0.12 149.26 0.08 223.89 0.12 18.95-0.1 37.88 0.48 56.83 0.29 0.14-7.62 0.03-15.24 0.07-22.85-93.6-0.15-187.21 0.02-280.82 0.06m0.06 45.78c0.08 7.46 0.09 14.91 0.02 22.36 93.58-0.27 187.16-0.14 280.73 0.08-0.04-7.6 0.1-15.21-0.07-22.81-44.27-0.04-88.54-0.09-132.81-0.08-8.68 0.04-17.36-0.17-26.03 0.33-40.61 0-81.23 0.22-121.84 0.12m0.09 45.42c0.03 5.01 0.08 10.02-0.02 15.03 93.55-0.35 187.1-0.24 280.66 0.13-0.01-5.07 0.01-10.14 0-15.21-93.55-0.25-187.09-0.07-280.64 0.05z"/>
  <path d="m46.04 0h1.21c0.25 2.1 0.82 4.14 1.43 6.15 2.14 0.08 4.28 0.16 6.42 0.29-1.7 1.13-3.41 2.26-5.1 3.39 0.58 2.11 1.17 4.22 1.75 6.33-1.67-1.24-3.33-2.49-4.98-3.75-1.78 1.21-3.55 2.43-5.32 3.66 0.53-2 1.19-3.98 1.46-6.04-1.38-1.61-3.2-2.76-4.89-4 2.19 0.03 4.52 0.58 6.6-0.32 0.82-1.8 1.04-3.79 1.42-5.71z"/>
  <path d="m83.53 0.01h0.93c0.2 2.22 0.88 4.35 1.87 6.34 2.07-0.04 4.13-0.03 6.2 0-1.75 1.19-3.5 2.37-5.25 3.56 0.57 2.07 1.16 4.13 1.68 6.21-1.7-1.19-3.35-2.42-5-3.67-1.64 1.21-3.29 2.41-4.97 3.57 0.45-2.06 0.97-4.1 1.51-6.14-1.73-1.2-3.47-2.37-5.21-3.55 2.1-0.03 4.19-0.03 6.29 0 0.96-2 1.61-4.13 1.95-6.32z"/>
  <path d="m119.18 6.28c0.61-2.03 1.44-4.05 1.29-6.21l5.25 0.62-4.26 0.63c0.71 1.67 1.41 3.35 2.12 5.02 2.1-0.01 4.21 0 6.31 0.03-1.78 1.19-3.55 2.41-5.3 3.66 0.66 2 1.31 4.01 1.93 6.03-1.85-1.12-3.65-2.3-5.42-3.52-1.63 1.24-3.27 2.47-4.96 3.63 0.54-2.08 1.15-4.14 1.76-6.2-1.75-1.2-3.49-2.39-5.23-3.59 2.17-0.05 4.34-0.08 6.51-0.1z"/>
  <path d="m26.06 21.65c0.55-1.97 1.18-3.92 1.91-5.84 0.68 1.99 1.33 3.99 1.96 6 2.16 0.04 4.33 0.06 6.49 0.1-1.67 1.38-3.38 2.73-5.11 4.04 0.67 2.07 1.36 4.13 2.06 6.2-1.81-1.25-3.62-2.5-5.4-3.78-1.75 1.25-3.52 2.47-5.33 3.63 0.67-2.07 1.35-4.14 2.05-6.19-1.36-0.94-2.79-1.75-4.23-2.56l-0.72-0.3c-1.01-0.72-0.09-1.88 0.23-2.69l0.34 2c1.91-0.21 3.83-0.41 5.75-0.61z"/>
  <path d="m65.15 15.81c0.71 1.98 1.31 4.01 2.17 5.94 2.2 0.33 4.43 0.16 6.64 0.14-1.79 1.37-3.57 2.77-5.35 4.16 0.69 2 1.37 4 2.03 6.01-1.87-1.15-3.69-2.36-5.5-3.6-1.65 1.25-3.32 2.47-5.03 3.65 0.53-2 1.25-3.95 1.64-5.98-1.32-1.66-3.34-2.6-5.02-3.85 2.16-0.04 4.32-0.07 6.48-0.09 0.68-2.12 1.33-4.25 1.94-6.38z"/>
  <path d="m100.37 22.28c0.67-1.93 1.42-3.85 2.43-5.64 0.64 1.88 1.26 3.76 1.88 5.64 2.14 0.01 4.29 0.01 6.43 0.04-1.7 1.21-3.41 2.42-5.11 3.65 0.59 2.06 1.2 4.11 1.77 6.18-1.72-1.16-3.4-2.37-5.07-3.59-1.79 1.18-3.58 2.37-5.38 3.53 0.62-1.98 1.37-3.94 1.65-6-1.39-1.56-3.25-2.58-4.94-3.77 2.11-0.02 4.22-0.03 6.34-0.04z"/>
  <path d="m46.78 31.91c0.62 2.01 1.23 4.03 1.84 6.04 2.14 0.18 4.29 0.29 6.43 0.41-1.63 1.2-3.69 2.03-4.86 3.73 0.31 2.06 1.03 4.03 1.55 6.05-1.65-1.24-3.29-2.49-4.93-3.75-1.83 1.17-3.65 2.37-5.47 3.56 0.59-1.95 1.33-3.88 1.61-5.91-1.36-1.39-2.87-2.62-4.2-4.05 1.95-0.09 3.9-0.13 5.84-0.16 0.69-1.99 1.42-3.97 2.19-5.92z"/>
  <path d="m81.58 38.28c0.91-2.14 1.68-4.33 2.39-6.55 0.62 1.99 1.11 4.03 1.99 5.92 1.87 1.17 4.33 0.39 6.44 0.67-1.73 1.19-3.44 2.4-5.15 3.61 0.61 2.05 1.26 4.09 1.89 6.14-1.75-1.19-3.48-2.41-5.19-3.64-1.79 1.25-3.57 2.49-5.35 3.75 0.69-2.08 1.34-4.17 1.98-6.26-1.73-1.22-3.46-2.45-5.2-3.66 2.07-0.01 4.13 0 6.2 0.02z"/>
  <path d="m119.14 38.22c0.66-2.11 1.33-4.21 1.98-6.32 0.8 2.14 1.59 4.27 2.45 6.39 2.03-0.01 4.07 0 6.11 0.03-1.7 1.23-3.4 2.46-5.08 3.71 0.67 1.99 1.32 3.99 1.95 6-1.84-1.15-3.64-2.36-5.44-3.57-1.66 1.25-3.32 2.5-5 3.7 0.54-2.07 1.18-4.12 1.8-6.18-1.71-1.22-3.41-2.45-5.11-3.68 2.11-0.03 4.22-0.06 6.34-0.08z"/>
  <path d="m27.84 47.84c0.77 1.95 1.33 4 2.32 5.84 2 0.22 4.02 0.16 6.02 0.25-1.55 1.43-3.17 2.77-4.86 4.04 0.68 2.06 1.37 4.12 2.07 6.18-1.81-1.27-3.62-2.54-5.42-3.82-1.77 1.26-3.54 2.49-5.36 3.67 0.67-2.04 1.35-4.07 2.04-6.1-1.83-1.36-3.65-2.72-5.49-4.07 2.31-0.03 4.62-0.07 6.93-0.16 0.53-1.96 1.12-3.9 1.75-5.83z"/>
  <path d="m63.36 53.82c0.61-2.06 1.2-4.13 1.78-6.19 0.7 1.97 1.34 3.97 1.86 6 2.31 0.19 4.62 0.26 6.94 0.27-1.78 1.36-3.55 2.74-5.33 4.1 0.69 2.01 1.38 4.01 2.04 6.02-1.87-1.17-3.7-2.4-5.53-3.63-1.66 1.26-3.32 2.52-5.01 3.72 0.52-2.07 1.15-4.1 1.78-6.14-1.72-1.28-3.41-2.61-5.02-4.03 2.16-0.07 4.33-0.1 6.49-0.12z"/>
  <path d="m100.48 53.91c0.65-1.78 1.22-3.65 2.38-5.18 0.57 1.71 1.13 3.44 1.69 5.17 2.18-0.01 4.36 0 6.54 0.04-1.63 1.39-3.39 2.63-4.93 4.12 0.35 2.08 1.07 4.06 1.61 6.09-1.69-1.2-3.34-2.45-4.99-3.7-1.84 1.18-3.66 2.4-5.48 3.61 0.64-1.98 1.37-3.93 1.67-5.99-1.51-1.56-3.31-2.81-4.99-4.17 2.17-0.01 4.33 0 6.5 0.01z"/>
  <path d="m46.77 63.91c0.62 1.97 1.24 3.94 1.88 5.91 2.16 0.01 4.31 0.03 6.47 0.08-1.65 1.36-3.46 2.57-4.95 4.11 0.39 2.09 1.08 4.09 1.59 6.15-1.67-1.26-3.3-2.57-4.91-3.89-1.85 1.22-3.68 2.47-5.52 3.71 0.59-2.02 1.2-4.03 1.81-6.04-1.72-1.39-3.45-2.75-5.19-4.1 2.2-0.02 4.4-0.02 6.6-0.04 0.71-1.98 1.45-3.94 2.22-5.89z"/>
  <path d="m82.04 69.75c0.6-2.03 1.25-4.06 1.9-6.08 0.66 2.04 1.32 4.08 1.96 6.13 2.1 0.04 4.2 0.07 6.3 0.14-1.54 1.47-3.21 2.79-4.93 4.03 0.63 2.05 1.29 4.09 1.96 6.14-1.78-1.24-3.54-2.51-5.28-3.79-1.79 1.28-3.58 2.57-5.36 3.86 0.68-2.07 1.33-4.15 1.97-6.23-1.8-1.36-3.58-2.74-5.38-4.08 2.29-0.01 4.57-0.04 6.86-0.12z"/>
  <path d="m121.15 63.74c0.7 1.94 1.33 3.91 1.86 5.91 2.3 0.19 4.61 0.25 6.92 0.25-1.8 1.35-3.55 2.73-5.31 4.12 0.67 1.99 1.32 3.99 1.94 6-1.85-1.19-3.65-2.44-5.46-3.69-1.64 1.29-3.3 2.58-4.99 3.8 0.52-2.06 1.15-4.09 1.78-6.12-1.72-1.28-3.4-2.61-5-4.04 2.12-0.07 4.25-0.11 6.38-0.15 0.62-2.03 1.24-4.06 1.88-6.08z"/>
  <path d="m27.86 79.84c0.75 1.94 1.36 3.95 2.26 5.83 2.02 0.23 4.06 0.18 6.1 0.26-1.57 1.42-3.2 2.76-4.88 4.04 0.68 2.07 1.37 4.13 2.06 6.2-1.82-1.28-3.63-2.57-5.43-3.89-1.76 1.29-3.53 2.55-5.33 3.78 0.64-2.07 1.29-4.12 1.97-6.17-1.83-1.35-3.65-2.72-5.5-4.06 2.31-0.03 4.62-0.06 6.93-0.13 0.55-1.97 1.16-3.93 1.82-5.86z"/>
  <path d="m63.28 85.82c0.64-1.99 1.27-3.97 1.91-5.95 0.8 1.96 1.14 4.19 2.42 5.91 2.11 0.15 4.22 0.09 6.34 0.08-1.78 1.38-3.55 2.76-5.33 4.13 0.7 2.01 1.39 4.03 2.03 6.06-1.87-1.2-3.69-2.47-5.51-3.74-1.66 1.29-3.33 2.57-5.05 3.78 0.52-2.02 1.24-3.98 1.65-6.03-1.48-1.52-3.24-2.74-4.84-4.13 2.13-0.07 4.25-0.1 6.38-0.11z"/>
  <path d="m100.46 85.88c0.76-1.93 1.54-3.85 2.35-5.76 0.55 1.91 1.11 3.82 1.7 5.72 2.17 0.03 4.35 0.05 6.53 0.11-1.63 1.39-3.31 2.71-5.01 4.01 0.59 2.05 1.19 4.09 1.74 6.15-1.68-1.22-3.34-2.48-4.98-3.76-1.85 1.22-3.67 2.46-5.5 3.68 0.62-2.01 1.25-4.03 1.87-6.04-1.73-1.35-3.46-2.71-5.16-4.1 2.15-0.02 4.31-0.02 6.46-0.01z"/>
  <path d="m46.7 95.95c0.69 1.95 1.35 3.92 2.02 5.88 2.15 0 4.3 0.02 6.44 0.06-1.63 1.4-3.59 2.48-4.95 4.16 0.38 2.07 1.05 4.06 1.55 6.09-1.67-1.24-3.29-2.55-4.9-3.87-1.86 1.23-3.7 2.49-5.55 3.74 0.6-1.98 1.28-3.94 1.61-5.98-1.37-1.72-3.31-2.85-5.01-4.2 2.2-0.01 4.4-0.01 6.6-0.03 0.71-1.96 1.43-3.91 2.19-5.85z"/>
  <path d="m82.06 101.62c0.59-2 1.22-3.98 1.87-5.96 0.69 2.05 1.37 4.1 2.04 6.16 2.05 0.02 4.09 0.06 6.14 0.13-1.49 1.45-3.11 2.75-4.8 3.96 0.6 2.03 1.2 4.05 1.77 6.09-1.72-1.21-3.42-2.45-5.11-3.7-1.77 1.26-3.54 2.51-5.33 3.73 0.64-2.06 1.27-4.11 1.94-6.15-1.32-1.03-2.77-1.86-4.23-2.68l-0.66-0.26c-0.93-0.72 0.04-1.88 0.29-2.7l0.33 2c1.92-0.22 3.83-0.43 5.75-0.62z"/>
  <path d="m119.23 101.81c0.62-2.02 1.26-4.03 1.94-6.04 0.7 1.92 1.33 3.86 1.84 5.84 2.29 0.23 4.6 0.29 6.91 0.29-1.79 1.32-3.54 2.7-5.29 4.07 0.67 2 1.32 4.01 1.94 6.03-1.84-1.2-3.65-2.46-5.46-3.71-1.66 1.29-3.32 2.57-5.02 3.8 0.53-2.01 1.24-3.98 1.66-6.02-1.47-1.51-3.21-2.71-4.78-4.11 2.08-0.07 4.17-0.11 6.26-0.15z"/>
  <path d="m27.89 111.75c0.74 1.94 1.41 3.91 2.02 5.89 2.1 0.1 4.21 0.16 6.32 0.27-1.56 1.44-3.2 2.8-4.89 4.09 0.69 1.97 1.37 3.95 2.05 5.92-1.78-0.97-3.38-2.44-5.4-2.9-2.05 0.38-3.6 2.02-5.47 2.87 0.5-2.06 2.05-4.35 1.16-6.49-1.36-1.33-2.93-2.41-4.42-3.58 2.26-0.04 4.51-0.08 6.77-0.15 0.56-1.99 1.18-3.96 1.86-5.92z"/>
  <path d="m63.3 117.79c0.62-2.05 1.23-4.09 1.82-6.14 0.84 2.02 1.19 4.33 2.52 6.09 2.11 0.15 4.22 0.1 6.33 0.11-1.78 1.36-3.55 2.74-5.33 4.11 0.7 2.02 1.38 4.04 2.03 6.08-1.88-1.2-3.71-2.48-5.54-3.75-1.65 1.3-3.31 2.58-5.03 3.8 0.51-2.09 1.12-4.15 1.73-6.2-1.72-1.27-3.4-2.58-4.99-3.99 2.16-0.08 4.31-0.1 6.46-0.11z"/>
  <path d="m102.8 111.95c0.56 1.96 1.14 3.93 1.75 5.88 2.22 0.01 4.43 0.02 6.64 0.05-1.58 1.46-3.77 2.43-4.95 4.24 0.33 2.04 1.03 3.99 1.53 5.99-1.69-1.22-3.34-2.51-4.97-3.81-1.86 1.22-3.69 2.48-5.53 3.72 0.61-1.92 1.34-3.82 1.61-5.82-1.05-1.92-3.35-2.86-4.93-4.33 2.18-0.03 4.37-0.04 6.55-0.06 0.74-1.96 1.5-3.92 2.3-5.86z"/>
  <path d="m46.34 128.04c1.21 1.68 1.73 3.77 2.36 5.73 2.18 0.01 4.35 0.03 6.52 0.1-1.63 1.34-3.33 2.6-5.08 3.79 0.51 2.17 1.11 4.32 1.61 6.49-1.67-1.25-3.29-2.56-4.9-3.88-1.85 1.23-3.67 2.49-5.49 3.75 0.58-2.13 1.16-4.26 1.58-6.43-1.75-1.24-3.48-2.51-5.2-3.8 2.27-0.02 4.55-0.02 6.82-0.01 0.58-1.92 1.22-3.82 1.78-5.74z"/>
  <path d="m81.79 133.65c0.9-1.8 1.21-4 2.34-5.64 0.56 1.89 1.22 3.74 1.73 5.64 2.12 0.11 4.24 0.17 6.37 0.29-1.57 1.4-3.23 2.68-4.94 3.91 0.63 2.06 1.27 4.12 1.89 6.18-1.75-1.23-3.49-2.48-5.21-3.75-1.75 1.25-3.52 2.48-5.29 3.71 0.51-1.98 1.34-3.94 1.29-6.01-1-1.69-2.86-2.65-4.17-4.06 1.99-0.08 4-0.05 5.99-0.27z"/>
  <path d="m121.12 127.66c0.74 2 1.34 4.07 2.26 6 2.15 0.27 4.32 0.15 6.48 0.21l-5.25 4.02c0.69 2.02 1.35 4.05 1.97 6.1-1.84-1.22-3.65-2.49-5.47-3.75-1.65 1.29-3.3 2.58-4.98 3.84 0.52-2.14 1.13-4.26 1.69-6.39-1.73-1.16-3.4-2.41-4.98-3.76 2.14-0.1 4.28-0.15 6.42-0.2 0.6-2.03 1.23-4.05 1.86-6.07z"/>
 </g>
 <g id="#38409dff">
  <path d="m1.76 0h44.28c-0.38 1.92-0.6 3.91-1.42 5.71-2.08 0.9-4.41 0.35-6.6 0.32 1.69 1.24 3.51 2.39 4.89 4-0.27 2.06-0.93 4.04-1.46 6.04 1.77-1.23 3.54-2.45 5.32-3.66 1.65 1.26 3.31 2.51 4.98 3.75-0.58-2.11-1.17-4.22-1.75-6.33 1.69-1.13 3.4-2.26 5.1-3.39-2.14-0.13-4.28-0.21-6.42-0.29-0.61-2.01-1.18-4.05-1.43-6.15h95.65l-2.36 0.33c-0.12 5.19 0.01 10.37-0.02 15.56-0.01 7.6 0 15.21-0.01 22.81v22.74c0.01 7.61 0 15.23 0 22.84 0 7.52 0 15.03 0.01 22.55-0.01 7.63-0.01 15.27-0.01 22.9 0.01 7.58-0.01 15.16 0.01 22.73-46.61 0.02-93.23-0.02-139.84-0.02 0.31-5.83-0.65-11.76 0.52-17.51 1.7 0.61 3.12 1.78 4.64 2.74-0.63 2.15-1.24 4.3-1.79 6.46 1.72-1.23 3.42-2.5 5.11-3.78 1.84 1.24 3.67 2.48 5.52 3.69-0.61-2.07-1.25-4.13-1.89-6.19l5.46-4.08c-2.28-0.02-4.57-0.03-6.85-0.04-0.72-2.08-1.44-4.15-2.2-6.2-0.66 2.07-1.31 4.14-1.96 6.22-1.99 0.01-4 0.18-5.98-0.05-1.33-5.06-0.26-10.5-0.58-15.71 0.33-5.21-0.95-10.71 0.97-15.7 1.35 1.2 2.72 2.38 4.1 3.54-0.56 2.09-1.15 4.17-1.67 6.27 1.71-1.26 3.41-2.53 5.1-3.82 1.84 1.28 3.67 2.57 5.53 3.83-0.67-2.07-1.36-4.13-2.06-6.19 1.82-1.36 3.63-2.73 5.44-4.1-2.24-0.03-4.49-0.05-6.74-0.07-0.7-2.09-1.42-4.17-2.16-6.25-0.63 2.09-1.27 4.17-1.9 6.26-1.95 0.01-4.09 0.82-5.91-0.15-0.95-1.34-0.67-3.1-0.76-4.64 0.11-9.04-0.02-18.08 0.08-27.13 1.71 1.34 3.56 2.54 5.01 4.16-0.37 2.06-1.11 4.02-1.72 6.01 1.75-1.23 3.49-2.48 5.22-3.73 1.82 1.26 3.65 2.52 5.49 3.76-0.68-2.04-1.38-4.09-2.09-6.12 1.82-1.37 3.64-2.72 5.47-4.06-2.2-0.06-4.42 0.04-6.61-0.28-0.95-1.86-1.57-3.86-2.31-5.81-0.61 2-1.24 3.99-1.86 5.98-2.22 0-4.43 0-6.64 0.01-0.05-10.47 0.13-20.95-0.11-31.42 1.87 1.04 3.69 2.18 5.43 3.43-0.68 2.06-1.35 4.12-1.99 6.19 1.76-1.2 3.5-2.41 5.24-3.64 1.81 1.25 3.62 2.5 5.44 3.75-0.68-2.06-1.36-4.11-2.06-6.16 1.77-1.34 3.53-2.68 5.3-4.01-2.26-0.06-4.53-0.14-6.8-0.25-0.55-1.97-1.14-3.93-1.74-5.89-0.72 1.95-1.41 3.91-2.11 5.87-1.83 0.29-3.67 0.59-5.49 0.93-0.49-1.06-1.21-2.09-1.07-3.33-0.17-6.73 0.07-13.48-0.07-20.22 0.05-2.97-0.37-6.15 1.14-8.86 1.3 1.29 2.78 2.43 3.89 3.89-0.31 2.04-1 3.99-1.55 5.97 1.71-1.23 3.41-2.47 5.11-3.72 1.77 1.26 3.53 2.52 5.31 3.77-0.61-2.08-1.24-4.15-1.89-6.21 1.79-1.33 3.6-2.64 5.4-3.95-2.39-0.06-4.78-0.13-7.17-0.24-0.24-1.78-0.49-3.56-0.72-5.34l-1.32-0.2c-0.46 1.89-0.96 3.77-1.46 5.65-2.33 0.05-4.67 0.12-7 0.17 0.46-1.94-0.25-4.45 1.39-5.94m81.77 0.01c-0.34 2.19-0.99 4.32-1.95 6.32-2.1-0.03-4.19-0.03-6.29 0 1.74 1.18 3.48 2.35 5.21 3.55-0.54 2.04-1.06 4.08-1.51 6.14 1.68-1.16 3.33-2.36 4.97-3.57 1.65 1.25 3.3 2.48 5 3.67-0.52-2.08-1.11-4.14-1.68-6.21 1.75-1.19 3.5-2.37 5.25-3.56-2.07-0.03-4.13-0.04-6.2 0-0.99-1.99-1.67-4.12-1.87-6.34h-0.93m35.65 6.27c-2.17 0.02-4.34 0.05-6.51 0.1 1.74 1.2 3.48 2.39 5.23 3.59-0.61 2.06-1.22 4.12-1.76 6.2 1.69-1.16 3.33-2.39 4.96-3.63 1.77 1.22 3.57 2.4 5.42 3.52-0.62-2.02-1.27-4.03-1.93-6.03 1.75-1.25 3.52-2.47 5.3-3.66-2.1-0.03-4.21-0.04-6.31-0.03-0.71-1.67-1.41-3.35-2.12-5.02l4.26-0.63-5.25-0.62c0.15 2.16-0.68 4.18-1.29 6.21m-93.12 15.37c-1.92 0.2-3.84 0.4-5.75 0.61l-0.34-2c-0.32 0.81-1.24 1.97-0.23 2.69l0.72 0.3c1.44 0.81 2.87 1.62 4.23 2.56-0.7 2.05-1.38 4.12-2.05 6.19 1.81-1.16 3.58-2.38 5.33-3.63 1.78 1.28 3.59 2.53 5.4 3.78-0.7-2.07-1.39-4.13-2.06-6.2 1.73-1.31 3.44-2.66 5.11-4.04-2.16-0.04-4.33-0.06-6.49-0.1-0.63-2.01-1.28-4.01-1.96-6-0.73 1.92-1.36 3.87-1.91 5.84m39.09-5.84c-0.61 2.13-1.26 4.26-1.94 6.38-2.16 0.02-4.32 0.05-6.48 0.09 1.68 1.25 3.7 2.19 5.02 3.85-0.39 2.03-1.11 3.98-1.64 5.98 1.71-1.18 3.38-2.4 5.03-3.65 1.81 1.24 3.63 2.45 5.5 3.6-0.66-2.01-1.34-4.01-2.03-6.01 1.78-1.39 3.56-2.79 5.35-4.16-2.21 0.02-4.44 0.19-6.64-0.14-0.86-1.93-1.46-3.96-2.17-5.94m35.22 6.47c-2.12 0.01-4.23 0.02-6.34 0.04 1.69 1.19 3.55 2.21 4.94 3.77-0.28 2.06-1.03 4.02-1.65 6 1.8-1.16 3.59-2.35 5.38-3.53 1.67 1.22 3.35 2.43 5.07 3.59-0.57-2.07-1.18-4.12-1.77-6.18 1.7-1.23 3.41-2.44 5.11-3.65-2.14-0.03-4.29-0.03-6.43-0.04-0.62-1.88-1.24-3.76-1.88-5.64-1.01 1.79-1.76 3.71-2.43 5.64m-53.59 9.63c-0.77 1.95-1.5 3.93-2.19 5.92-1.94 0.03-3.89 0.07-5.84 0.16 1.33 1.43 2.84 2.66 4.2 4.05-0.28 2.03-1.02 3.96-1.61 5.91 1.82-1.19 3.64-2.39 5.47-3.56 1.64 1.26 3.28 2.51 4.93 3.75-0.52-2.02-1.24-3.99-1.55-6.05 1.17-1.7 3.23-2.53 4.86-3.73-2.14-0.12-4.29-0.23-6.43-0.41-0.61-2.01-1.22-4.03-1.84-6.04m34.8 6.37c-2.07-0.02-4.13-0.03-6.2-0.02 1.74 1.21 3.47 2.44 5.2 3.66-0.64 2.09-1.29 4.18-1.98 6.26 1.78-1.26 3.56-2.5 5.35-3.75 1.71 1.23 3.44 2.45 5.19 3.64-0.63-2.05-1.28-4.09-1.89-6.14 1.71-1.21 3.42-2.42 5.15-3.61-2.11-0.28-4.57 0.5-6.44-0.67-0.88-1.89-1.37-3.93-1.99-5.92-0.71 2.22-1.48 4.41-2.39 6.55m37.56-0.06c-2.12 0.02-4.23 0.05-6.34 0.08 1.7 1.23 3.4 2.46 5.11 3.68-0.62 2.06-1.26 4.11-1.8 6.18 1.68-1.2 3.34-2.45 5-3.7 1.8 1.21 3.6 2.42 5.44 3.57-0.63-2.01-1.28-4.01-1.95-6 1.68-1.25 3.38-2.48 5.08-3.71-2.04-0.03-4.08-0.04-6.11-0.03-0.86-2.12-1.65-4.25-2.45-6.39-0.65 2.11-1.32 4.21-1.98 6.32m-91.3 9.62c-0.63 1.93-1.22 3.87-1.75 5.83-2.31 0.09-4.62 0.13-6.93 0.16 1.84 1.35 3.66 2.71 5.49 4.07-0.69 2.03-1.37 4.06-2.04 6.1 1.82-1.18 3.59-2.41 5.36-3.67 1.8 1.28 3.61 2.55 5.42 3.82-0.7-2.06-1.39-4.12-2.07-6.18 1.69-1.27 3.31-2.61 4.86-4.04-2-0.09-4.02-0.03-6.02-0.25-0.99-1.84-1.55-3.89-2.32-5.84m35.52 5.98c-2.16 0.02-4.33 0.05-6.49 0.12 1.61 1.42 3.3 2.75 5.02 4.03-0.63 2.04-1.26 4.07-1.78 6.14 1.69-1.2 3.35-2.46 5.01-3.72 1.83 1.23 3.66 2.46 5.53 3.63-0.66-2.01-1.35-4.01-2.04-6.02 1.78-1.36 3.55-2.74 5.33-4.1-2.32-0.01-4.63-0.08-6.94-0.27-0.52-2.03-1.16-4.03-1.86-6-0.58 2.06-1.17 4.13-1.78 6.19m37.12 0.09c-2.17-0.01-4.33-0.02-6.5-0.01 1.68 1.36 3.48 2.61 4.99 4.17-0.3 2.06-1.03 4.01-1.67 5.99 1.82-1.21 3.64-2.43 5.48-3.61 1.65 1.25 3.3 2.5 4.99 3.7-0.54-2.03-1.26-4.01-1.61-6.09 1.54-1.49 3.3-2.73 4.93-4.12-2.18-0.04-4.36-0.05-6.54-0.04-0.56-1.73-1.12-3.46-1.69-5.17-1.16 1.53-1.73 3.4-2.38 5.18m-53.71 10c-0.77 1.95-1.51 3.91-2.22 5.89-2.2 0.02-4.4 0.02-6.6 0.04 1.74 1.35 3.47 2.71 5.19 4.1-0.61 2.01-1.22 4.02-1.81 6.04 1.84-1.24 3.67-2.49 5.52-3.71 1.61 1.32 3.24 2.63 4.91 3.89-0.51-2.06-1.2-4.06-1.59-6.15 1.49-1.54 3.3-2.75 4.95-4.11-2.16-0.05-4.31-0.07-6.47-0.08-0.64-1.97-1.26-3.94-1.88-5.91m35.27 5.84c-2.29 0.08-4.57 0.11-6.86 0.12 1.8 1.34 3.58 2.72 5.38 4.08-0.64 2.08-1.29 4.16-1.97 6.23 1.78-1.29 3.57-2.58 5.36-3.86 1.74 1.28 3.5 2.55 5.28 3.79-0.67-2.05-1.33-4.09-1.96-6.14 1.72-1.24 3.39-2.56 4.93-4.03-2.1-0.07-4.2-0.1-6.3-0.14-0.64-2.05-1.3-4.09-1.96-6.13-0.65 2.02-1.3 4.05-1.9 6.08m39.11-6.01c-0.64 2.02-1.26 4.05-1.88 6.08-2.13 0.04-4.26 0.08-6.38 0.15 1.6 1.43 3.28 2.76 5 4.04-0.63 2.03-1.26 4.06-1.78 6.12 1.69-1.22 3.35-2.51 4.99-3.8 1.81 1.25 3.61 2.5 5.46 3.69-0.62-2.01-1.27-4.01-1.94-6 1.76-1.39 3.51-2.77 5.31-4.12-2.31 0-4.62-0.06-6.92-0.25-0.53-2-1.16-3.97-1.86-5.91m-93.29 16.1c-0.66 1.93-1.27 3.89-1.82 5.86-2.31 0.07-4.62 0.1-6.93 0.13 1.85 1.34 3.67 2.71 5.5 4.06-0.68 2.05-1.33 4.1-1.97 6.17 1.8-1.23 3.57-2.49 5.33-3.78 1.8 1.32 3.61 2.61 5.43 3.89-0.69-2.07-1.38-4.13-2.06-6.2 1.68-1.28 3.31-2.62 4.88-4.04-2.04-0.08-4.08-0.03-6.1-0.26-0.9-1.88-1.51-3.89-2.26-5.83m35.42 5.98c-2.13 0.01-4.25 0.04-6.38 0.11 1.6 1.39 3.36 2.61 4.84 4.13-0.41 2.05-1.13 4.01-1.65 6.03 1.72-1.21 3.39-2.49 5.05-3.78 1.82 1.27 3.64 2.54 5.51 3.74-0.64-2.03-1.33-4.05-2.03-6.06 1.78-1.37 3.55-2.75 5.33-4.13-2.12 0.01-4.23 0.07-6.34-0.08-1.28-1.72-1.62-3.95-2.42-5.91-0.64 1.98-1.27 3.96-1.91 5.95m37.18 0.06c-2.15-0.01-4.31-0.01-6.46 0.01 1.7 1.39 3.43 2.75 5.16 4.1-0.62 2.01-1.25 4.03-1.87 6.04 1.83-1.22 3.65-2.46 5.5-3.68 1.64 1.28 3.3 2.54 4.98 3.76-0.55-2.06-1.15-4.1-1.74-6.15 1.7-1.3 3.38-2.62 5.01-4.01-2.18-0.06-4.36-0.08-6.53-0.11-0.59-1.9-1.15-3.81-1.7-5.72-0.81 1.91-1.59 3.83-2.35 5.76m-53.76 10.07c-0.76 1.94-1.48 3.89-2.19 5.85-2.2 0.02-4.4 0.02-6.6 0.03 1.7 1.35 3.64 2.48 5.01 4.2-0.33 2.04-1.01 4-1.61 5.98 1.85-1.25 3.69-2.51 5.55-3.74 1.61 1.32 3.23 2.63 4.9 3.87-0.5-2.03-1.17-4.02-1.55-6.09 1.36-1.68 3.32-2.76 4.95-4.16-2.14-0.04-4.29-0.06-6.44-0.06-0.67-1.96-1.33-3.93-2.02-5.88m35.36 5.67c-1.92 0.19-3.83 0.4-5.75 0.62l-0.33-2c-0.25 0.82-1.22 1.98-0.29 2.7l0.66 0.26c1.46 0.82 2.91 1.65 4.23 2.68-0.67 2.04-1.3 4.09-1.94 6.15 1.79-1.22 3.56-2.47 5.33-3.73 1.69 1.25 3.39 2.49 5.11 3.7-0.57-2.04-1.17-4.06-1.77-6.09 1.69-1.21 3.31-2.51 4.8-3.96-2.05-0.07-4.09-0.11-6.14-0.13-0.67-2.06-1.35-4.11-2.04-6.16-0.65 1.98-1.28 3.96-1.87 5.96m37.17 0.19c-2.09 0.04-4.18 0.08-6.26 0.15 1.57 1.4 3.31 2.6 4.78 4.11-0.42 2.04-1.13 4.01-1.66 6.02 1.7-1.23 3.36-2.51 5.02-3.8 1.81 1.25 3.62 2.51 5.46 3.71-0.62-2.02-1.27-4.03-1.94-6.03 1.75-1.37 3.5-2.75 5.29-4.07-2.31 0-4.62-0.06-6.91-0.29-0.51-1.98-1.14-3.92-1.84-5.84-0.68 2.01-1.32 4.02-1.94 6.04m-91.34 9.94c-0.68 1.96-1.3 3.93-1.86 5.92-2.26 0.07-4.51 0.11-6.77 0.15 1.49 1.17 3.06 2.25 4.42 3.58 0.89 2.14-0.66 4.43-1.16 6.49 1.87-0.85 3.42-2.49 5.47-2.87 2.02 0.46 3.62 1.93 5.4 2.9-0.68-1.97-1.36-3.95-2.05-5.92 1.69-1.29 3.33-2.65 4.89-4.09-2.11-0.11-4.22-0.17-6.32-0.27-0.61-1.98-1.28-3.95-2.02-5.89m35.41 6.04c-2.15 0.01-4.3 0.03-6.46 0.11 1.59 1.41 3.27 2.72 4.99 3.99-0.61 2.05-1.22 4.11-1.73 6.2 1.72-1.22 3.38-2.5 5.03-3.8 1.83 1.27 3.66 2.55 5.54 3.75-0.65-2.04-1.33-4.06-2.03-6.08 1.78-1.37 3.55-2.75 5.33-4.11-2.11-0.01-4.22 0.04-6.33-0.11-1.33-1.76-1.68-4.07-2.52-6.09-0.59 2.05-1.2 4.09-1.82 6.14m39.5-5.84c-0.8 1.94-1.56 3.9-2.3 5.86-2.18 0.02-4.37 0.03-6.55 0.06 1.58 1.47 3.88 2.41 4.93 4.33-0.27 2-1 3.9-1.61 5.82 1.84-1.24 3.67-2.5 5.53-3.72 1.63 1.3 3.28 2.59 4.97 3.81-0.5-2-1.2-3.95-1.53-5.99 1.18-1.81 3.37-2.78 4.95-4.24-2.21-0.03-4.42-0.04-6.64-0.05-0.61-1.95-1.19-3.92-1.75-5.88m-56.46 16.09c-0.56 1.92-1.2 3.82-1.78 5.74-2.27-0.01-4.55-0.01-6.82 0.01 1.72 1.29 3.45 2.56 5.2 3.8-0.42 2.17-1 4.3-1.58 6.43 1.82-1.26 3.64-2.52 5.49-3.75 1.61 1.32 3.23 2.63 4.9 3.88-0.5-2.17-1.1-4.32-1.61-6.49 1.75-1.19 3.45-2.45 5.08-3.79-2.17-0.07-4.34-0.09-6.52-0.1-0.63-1.96-1.15-4.05-2.36-5.73m35.45 5.61c-1.99 0.22-4 0.19-5.99 0.27 1.31 1.41 3.17 2.37 4.17 4.06 0.05 2.07-0.78 4.03-1.29 6.01 1.77-1.23 3.54-2.46 5.29-3.71 1.72 1.27 3.46 2.52 5.21 3.75-0.62-2.06-1.26-4.12-1.89-6.18 1.71-1.23 3.37-2.51 4.94-3.91-2.13-0.12-4.25-0.18-6.37-0.29-0.51-1.9-1.17-3.75-1.73-5.64-1.13 1.64-1.44 3.84-2.34 5.64m39.33-5.99c-0.63 2.02-1.26 4.04-1.86 6.07-2.14 0.05-4.28 0.1-6.42 0.2 1.58 1.35 3.25 2.6 4.98 3.76-0.56 2.13-1.17 4.25-1.69 6.39 1.68-1.26 3.33-2.55 4.98-3.84 1.82 1.26 3.63 2.53 5.47 3.75-0.62-2.05-1.28-4.08-1.97-6.1l5.25-4.02c-2.16-0.06-4.33 0.06-6.48-0.21-0.92-1.93-1.52-4-2.26-6z" fill="#38409d"/>
 </g>
 <g id="#ff0b54ff" fill="#ff0b54">
  <path d="m142.9 0h138.88c0.7 5.17 0.21 10.39 0.1 15.58-47.12 0.22-94.24 0.29-141.36 0.31 0.03-5.19-0.1-10.37 0.02-15.56l2.36-0.33z"/>
  <path d="m140.51 38.7c47.21 0.01 94.41-0.08 141.61-0.15-0.07 7.6 0.36 15.21-0.31 22.79-47.1-0.05-94.2 0.17-141.3 0.1v-22.74z"/>
  <path d="m140.51 84.28c47.23 0.11 94.47-0.26 141.69 0.06 0.06 7.47-0.42 14.94-0.28 22.41-47.14 0.1-94.27 0.08-141.4 0.08-0.01-7.52-0.01-15.03-0.01-22.55z"/>
  <path d="m140.51 129.73c47.19-0.03 94.39-0.01 141.58-0.03-0.01 7.58-0.35 15.15 0.12 22.73-47.23 0.1-94.46-0.01-141.69 0.03-0.02-7.57 0-15.15-0.01-22.73z"/>
  <path d="m1.08 175.42c93.61-0.04 187.22-0.21 280.82-0.06-0.04 7.61 0.07 15.23-0.07 22.85-18.95 0.19-37.88-0.39-56.83-0.29-74.63-0.04-149.26-0.24-223.89-0.12 0.08-7.46 0.04-14.92-0.03-22.38z"/>
  <path d="m1.14 221.2c40.61 0.1 81.23-0.12 121.84-0.12 8.67-0.5 17.35-0.29 26.03-0.33 44.27-0.01 88.54 0.04 132.81 0.08 0.17 7.6 0.03 15.21 0.07 22.81-93.57-0.22-187.15-0.35-280.73-0.08 0.07-7.45 0.06-14.9-0.02-22.36z"/>
  <path d="m1.23 266.62c93.55-0.12 187.09-0.3 280.64-0.05 0.01 5.07-0.01 10.14 0 15.21-93.56-0.37-187.11-0.48-280.66-0.13 0.1-5.01 0.05-10.02 0.02-15.03z"/>
 </g>
</svg>
